<svg xmlns="http://www.w3.org/2000/svg" xmlns:xlink="http://www.w3.org/1999/xlink" fill="none" version="1.1" width="14" height="14" viewBox="0 0 14 14"><defs><clipPath id="master_svg0_298_21239"><rect x="0" y="0" width="14" height="14" rx="0"/></clipPath></defs><g clip-path="url(#master_svg0_298_21239)"><g><path d="M12.7273,14L9.54545,14C9.194,14,8.90909,13.7151,8.90909,13.3636C8.90909,13.0122,9.194,12.7273,9.54545,12.7273L12.0909,12.7273C12.4424,12.7273,12.7273,12.4424,12.7273,12.0909L12.7273,9.54545C12.7273,9.194,13.0122,8.90909,13.3636,8.90909C13.7151,8.90909,14,9.194,14,9.54545L14,12.7273C14,13.4302,13.4302,14,12.7273,14ZM13.3636,5.09091C13.0122,5.09091,12.7273,4.806,12.7273,4.45455L12.7273,1.90909C12.7273,1.55764,12.4424,1.27273,12.0909,1.27273L9.54545,1.27273C9.194,1.27273,8.90909,0.987818,8.90909,0.636364C8.90909,0.28491,9.194,0,9.54545,0L12.7273,0C13.4302,0,14,0.569819,14,1.27273L14,4.45455C14,4.806,13.7151,5.09091,13.3636,5.09091ZM4.45455,1.27273L1.90909,1.27273C1.55764,1.27273,1.27273,1.55764,1.27273,1.90909L1.27273,4.45455C1.27273,4.806,0.987818,5.09091,0.636364,5.09091C0.28491,5.09091,0,4.806,0,4.45455L0,1.27273C-8.37932e-8,0.569819,0.569819,0,1.27273,0L4.45455,0C4.806,0,5.09091,0.28491,5.09091,0.636364C5.09091,0.987818,4.806,1.27273,4.45455,1.27273ZM1.27273,7C1.27273,6.82427,1.41518,6.68182,1.59091,6.68182L12.4091,6.68182C12.5848,6.68182,12.7273,6.82427,12.7273,7C12.7273,7.17573,12.5848,7.31818,12.4091,7.31818L1.59091,7.31818C1.41518,7.31818,1.27273,7.17573,1.27273,7ZM0.636364,8.90909C0.987818,8.90909,1.27273,9.194,1.27273,9.54545L1.27273,12.0909C1.27273,12.4424,1.55764,12.7273,1.90909,12.7273L4.45455,12.7273C4.806,12.7273,5.09091,13.0122,5.09091,13.3636C5.09091,13.7151,4.806,14,4.45455,14L1.27273,14C0.569819,14,0,13.4302,0,12.7273L0,9.54545C-4.18966e-8,9.194,0.28491,8.90909,0.636364,8.90909Z" fill="#333333" fill-opacity="1" style="mix-blend-mode:passthrough"/></g></g></svg>