<svg xmlns="http://www.w3.org/2000/svg" xmlns:xlink="http://www.w3.org/1999/xlink" fill="none" version="1.1" width="42" height="42" viewBox="0 0 42 42"><defs><mask id="master_svg0_543_39906" style="mask-type:alpha" maskUnits="objectBoundingBox"><g><rect x="0" y="0" width="42" height="42" rx="21" fill="#FFFFFF" fill-opacity="1"/></g></mask></defs><g><g><rect x="0" y="0" width="42" height="42" rx="21" fill="#E3E7ED" fill-opacity="1"/><rect x="1" y="1" width="40" height="40" rx="20" fill-opacity="0" stroke-opacity="1" stroke="#AEB7C5" fill="none" stroke-width="2"/></g><g mask="url(#master_svg0_543_39906)"><g><path d="M20.848300000000002,10Q21.7696,10,22.675,10.207585Q23.5803,10.41517,24.3745,10.766467Q25.1687,11.11776,25.7882,11.564869999999999Q26.4076,12.01198,26.7571,12.45908Q27.583,13.48104,27.9642,14.71058Q28.3454,15.94012,28.5043,17.05788Q28.6631,18.33533,28.6631,19.64471Q28.8855,19.804389999999998,29.0125,20.0599Q29.1396,20.2834,29.219,20.634700000000002Q29.2984,20.986,29.2349,21.497Q29.1714,22.1677,28.9649,22.5669Q28.7584,22.9661,28.5043,23.1896Q28.2183,23.4451,27.9007,23.5409Q27.7418,24.0838,27.583,24.5629Q27.4242,24.978,27.2177,25.377200000000002Q27.0112,25.776400000000002,26.7571,26Q26.1535,26.479,25.7723,26.8144Q25.3911,27.1497,25.264,27.9481Q25.1687,28.4271,25.2005,28.9222Q25.2322,29.4172,25.4705,29.9122Q25.7087,30.4072,26.2011,30.8543Q26.6935,31.3014,27.583,31.6527Q28.3772,31.9721,29.3143,32.2275Q30.2515,32.483000000000004,31.1409,32.8184Q32.0304,33.1537,32.7134,33.648700000000005Q33.3964,34.143699999999995,33.6823,35.006Q33.8412,35.516999999999996,33.9206,36.2675Q34,37.018,34,37.784400000000005Q34,38.5509,33.8888,39.221599999999995Q33.7776,39.8922,33.5553,40.2435Q33.3964,40.4671,32.6499,40.6906Q31.9034,40.9142,30.8074,41.1218Q29.7114,41.3293,28.3613,41.489000000000004Q27.0112,41.648700000000005,25.6452,41.7605Q24.2792,41.872299999999996,23.0244,41.936099999999996Q21.7696,42,20.848300000000002,42Q19.9271,42,18.704,41.936099999999996Q17.481,41.872299999999996,16.178539999999998,41.7605Q14.87608,41.648700000000005,13.58951,41.504999999999995Q12.30293,41.3613,11.25461,41.2016Q10.20629,41.0419,9.47564,40.8822Q8.744995,40.7226,8.554391,40.5629Q8.236718,40.3074,8.0619974,38.998000000000005Q7.887277,37.6886,8.20495,35.6128Q8.363787,34.4311,9.14209,33.8084Q9.92038,33.1856,10.95282,32.8184Q11.98526,32.4511,13.09711,32.1637Q14.20897,31.8762,15.066690000000001,31.3333Q15.733799999999999,30.9182,16.08324,30.5349Q16.432679999999998,30.1517,16.59152,29.7685Q16.750349999999997,29.3852,16.750349999999997,28.9701Q16.750349999999997,28.5549,16.71859,28.0439Q16.65505,27.3094,16.21031,26.8782Q15.76557,26.4471,15.22552,26Q14.97139,25.776400000000002,14.78078,25.377200000000002Q14.59018,24.978,14.431339999999999,24.5629Q14.27251,24.0838,14.113669999999999,23.5409Q13.891300000000001,23.477,13.66893,23.3174Q13.47832,23.1577,13.25595,22.8703Q13.03358,22.5828,12.87474,22.0399Q12.68414,21.497,12.73179,21.0499Q12.779440000000001,20.602800000000002,12.90651,20.2834Q13.03358,19.93214,13.31949,19.61278Q13.28772,18.3992,13.44656,17.18563Q13.57363,16.16367,13.90718,14.98204Q14.240739999999999,13.8004,14.90785,12.87425Q15.51143,11.98004,16.25796,11.42116Q17.00449,10.862278,17.78279,10.542916Q18.5611,10.223555,19.339399999999998,10.111779Q20.1177,10.00000208616,20.848300000000002,10Z" fill="#AEB7C5" fill-opacity="1" style="mix-blend-mode:passthrough"/></g></g></g></svg>