<svg xmlns="http://www.w3.org/2000/svg" xmlns:xlink="http://www.w3.org/1999/xlink" fill="none"
  version="1.1" width="25" height="25" viewBox="0 0 25 25">
  <defs>
    <clipPath id="master_svg0_27_1599">
      <rect x="0" y="0" width="25" height="25" rx="0" />
    </clipPath>
  </defs>
  <g clip-path="url(#master_svg0_27_1599)">
    <g>
      <path
        d="M19.2,5L19.2,11.5Q19.2,11.57879,19.215400000000002,11.65607Q19.2307,11.73335,19.2609,11.80615Q19.291,11.87894,19.3348,11.94446Q19.3786,12.00997,19.4343,12.06569Q19.490000000000002,12.1214,19.555500000000002,12.16517Q19.6211,12.20895,19.6939,12.2391Q19.7666,12.26926,19.843899999999998,12.28463Q19.9212,12.3,20,12.3Q20.0788,12.3,20.156100000000002,12.28463Q20.2333,12.26926,20.3061,12.2391Q20.3789,12.20895,20.444499999999998,12.16517Q20.509999999999998,12.1214,20.5657,12.06569Q20.6214,12.00997,20.6652,11.94446Q20.7089,11.87894,20.7391,11.80615Q20.7693,11.73335,20.784599999999998,11.65607Q20.8,11.57879,20.8,11.5L20.8,11.49825L20.8,5Q20.8,3.840202,19.9799,3.0201018Q19.1598,2.2,18,2.2L7,2.2Q5.840202,2.2,5.020101,3.0201011Q4.2,3.840202,4.2,5L4.2,20Q4.2,21.1598,5.0201011,21.9799Q5.840201,22.8,7,22.8L14,22.8Q14.07879,22.8,14.15607,22.7846Q14.23335,22.7693,14.30615,22.7391Q14.37894,22.7089,14.44446,22.6652Q14.50997,22.6214,14.56569,22.5657Q14.6214,22.51,14.66517,22.4445Q14.70895,22.3789,14.7391,22.3061Q14.76926,22.2333,14.78463,22.1561Q14.8,22.0788,14.8,22Q14.8,21.9212,14.78463,21.8439Q14.76926,21.7666,14.7391,21.6938Q14.70895,21.6211,14.66517,21.5555Q14.6214,21.49,14.56569,21.4343Q14.50997,21.3786,14.44446,21.3348Q14.37894,21.291,14.30615,21.2609Q14.23335,21.2307,14.15607,21.2154Q14.07879,21.2,14,21.2L7,21.2Q6.50294,21.2,6.15147,20.8485Q5.8,20.4971,5.8,20L5.8,5Q5.8,4.50294,6.15147,4.15147Q6.50294,3.8,7,3.8L18,3.8Q18.4971,3.8,18.8485,4.15147Q19.2,4.50294,19.2,5Z"
        fill-rule="evenodd" fill="currentColor" fill-opacity="1" />
    </g>
    <g>
      <path
        d="M9,7.7L15.5,7.7Q15.57879,7.7,15.65607,7.715372Q15.73335,7.730744,15.806149999999999,7.760896Q15.87894,7.791049,15.94446,7.834824Q16.00997,7.878599,16.06569,7.934315Q16.1214,7.99003,16.16517,8.055544Q16.20895,8.121058,16.2391,8.193853Q16.26926,8.266649,16.28463,8.343928Q16.3,8.4212069,16.3,8.5Q16.3,8.5787931,16.28463,8.656072Q16.26926,8.733351,16.2391,8.806147Q16.20895,8.878942,16.16517,8.944456Q16.1214,9.00997,16.06569,9.065685Q16.00997,9.121401,15.94445,9.165176Q15.87894,9.208951,15.806149999999999,9.239104Q15.73335,9.269256,15.65607,9.284628Q15.57879,9.3,15.5,9.3L9,9.3Q8.9212069,9.3,8.843928,9.284628Q8.766649,9.269256,8.693853,9.239104Q8.621058,9.208951,8.555544,9.165176Q8.49003,9.121401,8.434315,9.065685Q8.378599,9.00997,8.334824,8.944456Q8.291049,8.878942,8.260896,8.806147Q8.230744,8.733351,8.215372,8.656072Q8.2,8.5787931,8.2,8.5Q8.2,8.4212069,8.215372,8.343928Q8.230744,8.266649,8.260896,8.193853Q8.291049,8.121058,8.334824,8.055544Q8.378599,7.99003,8.434315,7.934315Q8.49003,7.878599,8.555544,7.834824Q8.621058,7.791049,8.693853,7.760896Q8.766649,7.730744,8.843928,7.715372Q8.9212069,7.7,9,7.7Z"
        fill-rule="evenodd" fill="currentColor" fill-opacity="1" />
    </g>
    <g>
      <path
        d="M9,11.2L13.5,11.2Q13.57879,11.2,13.65607,11.215372Q13.73335,11.230744,13.806149999999999,11.260896Q13.87894,11.291049,13.94446,11.334824Q14.00997,11.378599,14.06569,11.434315Q14.121400000000001,11.49003,14.16518,11.555544Q14.20895,11.621058,14.2391,11.693853Q14.26926,11.766649,14.28463,11.843928Q14.3,11.9212069,14.3,12Q14.3,12.0787931,14.28463,12.156072Q14.26926,12.233351,14.2391,12.306147Q14.20895,12.378942,14.16518,12.444456Q14.121400000000001,12.50997,14.06569,12.565685Q14.00997,12.621401,13.94446,12.665176Q13.87894,12.708951,13.806149999999999,12.739104Q13.73335,12.769256,13.65607,12.784628Q13.57879,12.8,13.5,12.8L9,12.8Q8.9212069,12.8,8.843928,12.784628Q8.766649,12.769256,8.693853,12.739104Q8.621058,12.708951,8.555544,12.665176Q8.49003,12.621401,8.434315,12.565685Q8.378599,12.50997,8.334824,12.444456Q8.291049,12.378942,8.260896,12.306147Q8.230744,12.233351,8.215372,12.156072Q8.2,12.0787931,8.2,12Q8.2,11.9212069,8.215372,11.843928Q8.230744,11.766649,8.260896,11.693853Q8.291049,11.621058,8.334824,11.555544Q8.378599,11.49003,8.434315,11.434315Q8.49003,11.378599,8.555544,11.334824Q8.621058,11.291049,8.693853,11.260896Q8.766649,11.230744,8.843928,11.215372Q8.9212069,11.2,9,11.2Z"
        fill-rule="evenodd" fill="currentColor" fill-opacity="1" />
    </g>
    <g
      transform="matrix(0.7071068286895752,0.7071068286895752,-0.7071067690849304,0.7071067690849304,19.707248650840484,-7.577510393806733)">
      <path
        d="M19.00048828125,19.2L21.82891828125,19.2Q21.90770828125,19.2,21.98498828125,19.215372Q22.06226828125,19.230744,22.13505828125,19.260896Q22.20785828125,19.291049,22.27336828125,19.334824Q22.33888828125,19.378599,22.39459828125,19.434315Q22.45031828125,19.49003,22.49408828125,19.555544Q22.53786828125,19.621058,22.56801828125,19.693853Q22.59816828125,19.766649,22.61353828125,19.843928Q22.62891828125,19.9212069,22.62891828125,20Q22.62891828125,20.0787931,22.61353828125,20.156072Q22.59816828125,20.233351,22.56801828125,20.306147Q22.53786828125,20.378942,22.49408828125,20.444456Q22.45031828125,20.50997,22.39459828125,20.565685Q22.33888828125,20.621401,22.27336828125,20.665176Q22.20785828125,20.708951,22.13505828125,20.739104Q22.06226828125,20.769256,21.98498828125,20.784628Q21.90770828125,20.8,21.82891828125,20.8L19.00048828125,20.8Q18.92169518125,20.8,18.84441628125,20.784628Q18.76713728125,20.769256,18.69434128125,20.739104Q18.62154628125,20.708951,18.55603228125,20.665176Q18.49051828125,20.621401,18.43480328125,20.565685Q18.37908728125,20.50997,18.33531228125,20.444456Q18.29153728125,20.378942,18.26138428125,20.306147Q18.23123228125,20.233351,18.21586028125,20.156072Q18.20048828125,20.0787931,18.20048828125,20Q18.20048828125,19.9212069,18.21586028125,19.843928Q18.23123228125,19.766649,18.26138428125,19.693853Q18.29153728125,19.621058,18.33531228125,19.555544Q18.37908728125,19.49003,18.43480328125,19.434315Q18.49051828125,19.378599,18.55603228125,19.334824Q18.62154628125,19.291049,18.69434128125,19.260896Q18.76713728125,19.230744,18.84441628125,19.215372Q18.92169518125,19.2,19.00048828125,19.2Z"
        fill-rule="evenodd" fill="currentColor" fill-opacity="1" />
    </g>
    <g>
      <path
        d="M21,17Q21,17.19651,20.98074,17.39207Q20.96148,17.58763,20.92314,17.78036Q20.8848,17.97309,20.827759999999998,18.16114Q20.77072,18.34918,20.695520000000002,18.53073Q20.62032,18.71228,20.52768,18.88559Q20.43505,19.058889999999998,20.325879999999998,19.222279999999998Q20.2167,19.38567,20.09204,19.53757Q19.96738,19.68948,19.82843,19.82843Q19.68948,19.96738,19.53757,20.09204Q19.38567,20.2167,19.222279999999998,20.325879999999998Q19.058889999999998,20.43505,18.88559,20.52768Q18.71228,20.62032,18.53073,20.695520000000002Q18.34918,20.77072,18.16114,20.827759999999998Q17.97309,20.8848,17.78036,20.92314Q17.58763,20.96148,17.39207,20.98074Q17.19651,21,17,21Q16.80349,21,16.60793,20.98074Q16.41237,20.96148,16.21964,20.92314Q16.02691,20.8848,15.83886,20.827759999999998Q15.65082,20.77072,15.46927,20.695520000000002Q15.28772,20.62032,15.11441,20.52768Q14.94111,20.43505,14.77772,20.325879999999998Q14.61433,20.2167,14.46243,20.09204Q14.31052,19.96738,14.17157,19.82843Q14.03262,19.68948,13.907958,19.53757Q13.783295,19.38567,13.674121,19.222279999999998Q13.564948,19.058889999999998,13.472315,18.88559Q13.379682,18.71228,13.304482,18.53073Q13.229282,18.34918,13.172239,18.16114Q13.115196,17.97309,13.0768589,17.78036Q13.0385222,17.58763,13.0192611,17.39207Q13,17.19651,13,17Q13,16.80349,13.0192611,16.60793Q13.0385222,16.41237,13.0768589,16.21964Q13.115196,16.02691,13.172239,15.83886Q13.229282,15.65082,13.304482,15.46927Q13.379682,15.28772,13.472315,15.11441Q13.564948,14.94111,13.674121,14.77772Q13.783295,14.61433,13.907958,14.46243Q14.03262,14.31052,14.17157,14.17157Q14.31052,14.03262,14.46243,13.907958Q14.61433,13.783295,14.77772,13.674121Q14.94111,13.564948,15.11441,13.472315Q15.28772,13.379682,15.46927,13.304482Q15.65082,13.229282,15.83886,13.172239Q16.02691,13.115196,16.21964,13.0768589Q16.41237,13.0385222,16.60793,13.0192611Q16.80349,13,17,13Q17.19651,13,17.39207,13.0192611Q17.58763,13.0385222,17.78036,13.0768589Q17.97309,13.115196,18.16114,13.172239Q18.34918,13.229282,18.53073,13.304482Q18.71228,13.379682,18.88559,13.472315Q19.058889999999998,13.564948,19.222279999999998,13.674121Q19.38567,13.783295,19.53757,13.907958Q19.68948,14.03262,19.82843,14.17157Q19.96738,14.31052,20.09204,14.46243Q20.2167,14.61433,20.325879999999998,14.77772Q20.43505,14.94111,20.52768,15.11441Q20.62032,15.28772,20.695520000000002,15.46927Q20.77072,15.65082,20.827759999999998,15.83886Q20.8848,16.02691,20.92314,16.21964Q20.96148,16.41237,20.98074,16.60793Q21,16.80349,21,17ZM19.4,17Q19.4,16.8821,19.38844,16.76476Q19.37689,16.64742,19.35388,16.53178Q19.33088,16.41614,19.29666,16.30332Q19.262430000000002,16.19049,19.21731,16.08156Q19.17219,15.97263,19.11661,15.86865Q19.06103,15.76467,18.99553,15.66663Q18.93002,15.5686,18.85523,15.47746Q18.78043,15.38632,18.69706,15.30294Q18.61369,15.219570000000001,18.52254,15.14477Q18.4314,15.069980000000001,18.333370000000002,15.00447Q18.23533,14.93897,18.13135,14.88339Q18.02737,14.82781,17.91844,14.78269Q17.80951,14.73757,17.69668,14.70334Q17.58386,14.66912,17.46822,14.64612Q17.35258,14.62311,17.23524,14.61156Q17.1179,14.6,17,14.6Q16.8821,14.6,16.76476,14.61156Q16.64742,14.62311,16.53178,14.64612Q16.41614,14.66912,16.30332,14.70334Q16.19049,14.73757,16.08156,14.78269Q15.97263,14.82781,15.86865,14.88339Q15.76467,14.93897,15.66663,15.00447Q15.5686,15.069980000000001,15.47746,15.14477Q15.38632,15.219570000000001,15.30294,15.30294Q15.219570000000001,15.38632,15.14477,15.47746Q15.069980000000001,15.5686,15.00447,15.66663Q14.93897,15.76467,14.88339,15.86865Q14.82781,15.97263,14.78269,16.08156Q14.73757,16.19049,14.70334,16.30332Q14.66912,16.41614,14.64612,16.53178Q14.62311,16.64742,14.61156,16.76476Q14.6,16.8821,14.6,17Q14.6,17.1179,14.61156,17.23524Q14.62311,17.35258,14.64612,17.46822Q14.66912,17.58386,14.70334,17.69668Q14.73757,17.80951,14.78269,17.91844Q14.82781,18.02737,14.88339,18.13135Q14.93897,18.23533,15.00447,18.333370000000002Q15.069980000000001,18.4314,15.14477,18.52254Q15.219570000000001,18.61369,15.30294,18.69706Q15.38632,18.78043,15.47746,18.85523Q15.5686,18.93002,15.66663,18.99553Q15.76467,19.06103,15.86865,19.11661Q15.97263,19.17219,16.08156,19.21731Q16.19049,19.262430000000002,16.30332,19.29666Q16.41614,19.33088,16.53178,19.35388Q16.64742,19.37689,16.76476,19.38844Q16.8821,19.4,17,19.4Q17.1179,19.4,17.23524,19.38844Q17.35258,19.37689,17.46822,19.35388Q17.58386,19.33088,17.69668,19.29666Q17.80951,19.262430000000002,17.91844,19.21731Q18.02737,19.17219,18.13135,19.11661Q18.23533,19.06103,18.333370000000002,18.99553Q18.4314,18.93002,18.52254,18.85523Q18.61369,18.78043,18.69706,18.69706Q18.78043,18.61369,18.85523,18.52254Q18.93002,18.4314,18.99553,18.333370000000002Q19.06103,18.23533,19.11661,18.13135Q19.17219,18.02737,19.21731,17.91844Q19.262430000000002,17.80951,19.29666,17.69668Q19.33088,17.58386,19.35388,17.46822Q19.37689,17.35258,19.38844,17.23524Q19.4,17.1179,19.4,17Z"
        fill="currentColor" fill-opacity="1" />
    </g>
  </g>
</svg>